<?xml version="1.0" encoding="UTF-8"?>
<svg version="1.1" xmlns="http://www.w3.org/2000/svg" width="1024" height="1024">
<path d="M0 0 C337.92 0 675.84 0 1024 0 C1024 337.92 1024 675.84 1024 1024 C686.08 1024 348.16 1024 0 1024 C0 686.08 0 348.16 0 0 Z " fill="#75CCF2" transform="translate(0,0)"/>
<path d="M0 0 C1.58748047 0.56074219 1.58748047 0.56074219 3.20703125 1.1328125 C25.93906095 9.9454864 44.72032374 26.76762281 55 49 C64.34203107 71.43237245 65.3627733 96.59129433 56.12304688 119.14013672 C48.56971974 136.68839196 35.67158215 149.78644706 20.89453125 161.625 C7.40231716 172.69553464 -2.35338477 184.52755443 -11.34570312 199.51342773 C-19.61755865 213.22722718 -19.61755865 213.22722718 -25 216 C-29.65769444 215.58200178 -33.06047604 214.13007688 -37.1875 212 C-54.30607989 203.64732877 -73.12107473 198.63625559 -91.59472656 194.29492188 C-92.66819336 194.03517578 -93.74166016 193.77542969 -94.84765625 193.5078125 C-95.79648682 193.28754395 -96.74531738 193.06727539 -97.72290039 192.84033203 C-100 192 -100 192 -102 189 C-104.68364614 188.21341406 -107.27042842 187.56309344 -110 187 C-117.72972973 185.40540541 -117.72972973 185.40540541 -120 182 C-120.59082031 180.01733398 -120.59082031 180.01733398 -121.078125 177.74609375 C-121.35982544 176.47838135 -121.35982544 176.47838135 -121.6472168 175.18505859 C-121.84613525 174.27836426 -122.04505371 173.37166992 -122.25 172.4375 C-128.51797769 145.35593773 -137.75206802 120.80210509 -162.03076172 105.19482422 C-172.49116177 98.80350887 -172.49116177 98.80350887 -184 95 C-183.52691406 95.54785156 -183.05382812 96.09570312 -182.56640625 96.66015625 C-167.16476003 115.12411809 -151.63411764 143.90189618 -153.21484375 168.56640625 C-153.41341338 173.35808644 -153.37185294 177.71766533 -151 182 C-146.10463456 186.46112167 -139.36674765 188.43484104 -133.24795532 190.66748047 C-127.67713609 192.70264097 -122.22059243 194.96646091 -116.765625 197.29296875 C-115.85536057 197.68101181 -114.94509613 198.06905487 -114.00724792 198.46885681 C-112.11534115 199.27610581 -110.22363609 200.0838277 -108.3321228 200.89199829 C-103.46948706 202.96330035 -98.59527042 205.0070004 -93.72265625 207.0546875 C-83.43087881 211.3883 -73.14701716 215.73958419 -62.89431763 220.16497803 C-61.23961496 220.87762685 -59.58346373 221.58692341 -57.92575073 222.2925415 C-37.70508807 230.90621412 -21.01593515 241.40127551 -11.62109375 262.02734375 C-10.61352865 264.67824381 -9.73906548 267.26201129 -9 270 C-8.73727295 270.9271582 -8.73727295 270.9271582 -8.46923828 271.87304688 C-6.75764039 278.53751485 -6.70247717 285.02379253 -6.75 291.875 C-6.74226562 292.98230469 -6.73453125 294.08960938 -6.7265625 295.23046875 C-6.79785409 325.56503927 -21.66771285 351.33447224 -42.46923828 372.48779297 C-51.3240211 381.23524509 -61.35074962 387.70028018 -72 394 C-72.97324219 394.58523438 -73.94648437 395.17046875 -74.94921875 395.7734375 C-79.33441682 398.32970433 -79.33441682 398.32970433 -81 399 C-81.66 398.67 -82.32 398.34 -83 398 C-82.443125 397.42894531 -81.88625 396.85789062 -81.3125 396.26953125 C-63.26835383 377.09762595 -55.34478581 354.4973963 -55.30664062 328.5078125 C-54.98566767 319.06066816 -54.98566767 319.06066816 -52.05883789 315.91113281 C-49.76703029 314.41634276 -47.4537403 313.2040779 -45 312 C-35.07796039 302.95956327 -29.97149016 291.56319995 -26 279 C-25.79632812 278.37222656 -25.59265625 277.74445313 -25.3828125 277.09765625 C-23.67801975 267.7560878 -23.72164037 257.11065016 -29 249 C-29.8353125 247.6078125 -29.8353125 247.6078125 -30.6875 246.1875 C-40.80036995 236.62127167 -57.84083888 236.72988653 -70.80859375 236.84765625 C-87.36406321 237.32563568 -109.84094151 238.39836866 -121.97265625 251.05859375 C-127.17480244 257.76112253 -127.80727558 263.63282607 -127 272 C-123.32772437 287.63852013 -113.43156084 303.20705135 -99.88671875 312.02734375 C-90.69492552 317.04201295 -81.22148044 319.13417421 -71 321 C-73.5791009 342.89492042 -88.01521253 362.92640676 -104.96484375 376.34765625 C-138.3975349 400.44068337 -180.23221916 404.87556651 -220.05859375 398.51123047 C-246.77543454 393.89192502 -270.42762251 384.71969374 -294.82836914 373.17529297 C-307.37947997 367.00959342 -307.37947997 367.00959342 -321 366 C-324.70209602 367.65120035 -327.98857175 369.4138966 -330.203125 372.88671875 C-333.16509318 380.7417422 -330.26433759 388.73524871 -327 396 C-323.82902045 402.65905705 -319.7209329 408.35582014 -315 414 C-314.319375 414.81597656 -313.63875 415.63195312 -312.9375 416.47265625 C-307.50158315 422.75308161 -301.5264731 427.88868227 -295 433 C-294.20980469 433.65613281 -293.41960937 434.31226563 -292.60546875 434.98828125 C-276.71396874 448.13895871 -259.19642964 457.03436046 -240.0625 464.5625 C-219.86718519 472.59287392 -203.89152756 486.84346982 -194.4765625 506.51171875 C-192.30030675 511.65297903 -190 517.3347237 -190 523 C-239.61288668 523.77507714 -283.45896125 513.9694122 -329 494 C-329.84916992 493.62875 -330.69833984 493.2575 -331.57324219 492.875 C-344.10435377 487.33686523 -356.03745354 480.65739709 -368 474 C-369.71872968 473.04553633 -371.43747841 472.09110696 -373.15625 471.13671875 C-374.4375462 470.42456228 -375.71881482 469.71235617 -377 469 C-360.15271486 503.54164049 -339.18858113 535.0648825 -313.265625 563.48828125 C-312.03850868 564.84868779 -310.81748451 566.21523207 -309.63256836 567.61254883 C-304.33328357 573.82665409 -298.5844178 579.5671636 -292.80297852 585.32739258 C-291.066064 587.058947 -289.33456111 588.79578359 -287.60351562 590.53320312 C-281.90504849 596.23555187 -276.16951872 601.80279134 -270 607 C-268.75296358 608.0783379 -267.50686611 609.15776262 -266.26171875 610.23828125 C-265.0706711 611.26343761 -263.87926807 612.28818123 -262.6875 613.3125 C-262.08099609 613.83650391 -261.47449219 614.36050781 -260.84960938 614.90039062 C-260.26373047 615.40376953 -259.67785156 615.90714844 -259.07421875 616.42578125 C-258.29437622 617.09734253 -258.29437622 617.09734253 -257.4987793 617.7824707 C-256.06778739 618.9449331 -254.53401208 619.97732528 -253 621 C-253.01571045 620.16041748 -253.0314209 619.32083496 -253.04760742 618.45581055 C-253.72013145 576.9721449 -253.72013145 576.9721449 -246 558 C-245.34 557.34 -244.68 556.68 -244 556 C-233.38229551 604.98419971 -224.95163617 654.05242121 -221.28808594 704.09570312 C-221.01171826 707.84118775 -220.71537259 711.5845754 -220.4140625 715.328125 C-218.30319101 742.20171554 -217.81229923 769.05772056 -218 796 C-246.05153119 802.50135488 -275.0778141 804.22755103 -303.8125 804.25 C-305.1725415 804.25151062 -305.1725415 804.25151062 -306.56005859 804.25305176 C-391.95966584 804.18965467 -477.35605168 779.92072055 -550.33837891 735.61230469 C-552.83369237 734.10074258 -555.3416092 732.61325977 -557.85546875 731.1328125 C-578.68693876 718.77320616 -597.67073553 703.77457673 -616 688 C-616.71542969 687.38640625 -617.43085937 686.7728125 -618.16796875 686.140625 C-620.12749504 684.44371564 -622.06745247 682.72758037 -624 681 C-624.86625 680.2265625 -625.7325 679.453125 -626.625 678.65625 C-632.49608523 673.34728995 -638.20376166 667.89822026 -643.8125 662.3125 C-644.42230713 661.70728516 -645.03211426 661.10207031 -645.66040039 660.47851562 C-649.97438707 656.14987347 -654.02706136 651.64211119 -658 647 C-658.92171997 645.93036011 -658.92171997 645.93036011 -659.86206055 644.83911133 C-661.73449929 642.65415462 -663.58768146 640.4541224 -665.4375 638.25 C-666.07365234 637.50878906 -666.70980469 636.76757812 -667.36523438 636.00390625 C-667.96529297 635.28589844 -668.56535156 634.56789063 -669.18359375 633.828125 C-669.72556396 633.1877832 -670.26753418 632.54744141 -670.82592773 631.88769531 C-672 630 -672 630 -672 626 C-670.04296875 623.87109375 -670.04296875 623.87109375 -667.1875 621.4375 C-654.50126171 610.29855527 -642.31148307 598.38751648 -632 585 C-631.09067245 583.88780943 -630.17764764 582.77863547 -629.26171875 581.671875 C-590.44340777 534.54219403 -566.28884078 477.45385049 -552.75 418.3125 C-552.39856934 416.80224243 -552.39856934 416.80224243 -552.04003906 415.26147461 C-547.85950263 396.30960947 -546.33067115 376.93355041 -544.8125 357.625 C-544.63401663 355.41271572 -544.45498259 353.20047581 -544.27539062 350.98828125 C-543.84394626 345.6593459 -543.41916691 340.32991443 -543 335 C-538.73125653 337.40649594 -534.81356465 339.796418 -530.9375 342.8125 C-518.49737573 352.00513327 -504.73243399 358.20967617 -489 356 C-474.07619948 351.32879892 -463.98979608 338.88176222 -456.69726562 325.63330078 C-437.80093344 289.41533075 -431.14211016 249.87297072 -429.375 209.4375 C-429.16143532 204.81080131 -428.93990174 200.18455563 -428.7109375 195.55859375 C-428.62954529 193.91297707 -428.62954529 193.91297707 -428.54650879 192.2341156 C-426.72208763 157.60048776 -418.72375435 120.78839375 -395 94 C-394.34 94 -393.68 94 -393 94 C-393 93.34 -393 92.68 -393 92 C-411.51911057 94.98264521 -428.84431367 100.9950044 -441 116 C-454.61245996 136.19141688 -459.0469587 159.10083808 -459.2109375 183.05859375 C-459.23905573 185.40951158 -459.26772036 187.76042292 -459.296875 190.11132812 C-459.33761868 193.74551855 -459.37457309 197.37959469 -459.40136719 201.01391602 C-459.70720203 239.35664162 -464.44443863 275.95198799 -483 310 C-483.59941406 311.12535156 -484.19882812 312.25070312 -484.81640625 313.41015625 C-491.66891681 325.78146726 -491.66891681 325.78146726 -497 329 C-513.11180718 327.39210071 -531.38499825 308.33466822 -543 298 C-543.94617188 297.1646875 -544.89234375 296.329375 -545.8671875 295.46875 C-557.57116888 284.93833857 -569.2587469 273.99924008 -578.9765625 261.58203125 C-581.17714247 258.77395527 -583.48962639 256.08257665 -585.8125 253.375 C-607.0828386 227.76511782 -628.70544635 194.64474349 -626 160 C-623.24973262 141.06899284 -610.21488277 125.99145404 -595.35253906 114.75439453 C-580.03240991 103.61445962 -562.86696512 95.85066598 -545.66467285 88.12609863 C-533.46545692 82.64494419 -521.39651356 76.92276421 -509.375 71.0625 C-508.56301147 70.66789581 -507.75102295 70.27329163 -506.91442871 69.86672974 C-498.26961897 65.66165387 -489.70444704 61.35268356 -481.24336243 56.78887939 C-475.60662157 53.76007465 -469.8798906 50.97531065 -464.0625 48.3125 C-463.03761475 47.84336182 -462.01272949 47.37422363 -460.95678711 46.89086914 C-452.78649078 43.21997057 -444.66960205 40.26028911 -436 38 C-434.68515625 37.65388672 -434.68515625 37.65388672 -433.34375 37.30078125 C-412.18582665 32.19244702 -385.80487082 33.54898484 -366.8125 44.875 C-365.86310547 45.52082031 -365.86310547 45.52082031 -364.89453125 46.1796875 C-360.83417752 47.9377788 -356.44762435 45.49393425 -352.5 44.125 C-328.06412551 36.60204538 -297.17501814 35.36379188 -272.99047852 44.40917969 C-269.70161306 45.38539144 -267.25466851 44.9211326 -264 44 C-262.61932035 43.04667358 -261.23975342 42.09159788 -259.87109375 41.12109375 C-247.28041029 33.57719781 -229.7601672 34.23232325 -215.875 37.375 C-190.98086274 43.78501004 -167.45466835 55.34659258 -144.17572021 66.00427246 C-142.10576002 66.95159848 -140.03481035 67.89671636 -137.96337891 68.84082031 C-131.30134984 71.87751663 -124.64527174 74.92678995 -118 78 C-117.87471924 77.39639648 -117.74943848 76.79279297 -117.62036133 76.17089844 C-112.84179302 53.43314847 -112.84179302 53.43314847 -108 44 C-107.26523438 42.53433594 -107.26523438 42.53433594 -106.515625 41.0390625 C-95.06863378 19.834874 -74.83419258 4.8792259 -52 -2 C-35.70100005 -6.77015174 -15.92425272 -5.65949051 0 0 Z " fill="#FEFEFE" transform="translate(815,142)"/>
<path d="M0 0 C337.92 0 675.84 0 1024 0 C1024 337.92 1024 675.84 1024 1024 C686.08 1024 348.16 1024 0 1024 C0 686.08 0 348.16 0 0 Z M452.0625 7.625 C451.35232727 7.70858765 450.64215454 7.79217529 449.91046143 7.8782959 C363.18202062 18.25695613 280.02782637 50.83953873 173 135 C172.52272461 135.4321582 172.04544922 135.86431641 171.55371094 136.30957031 C160.44479456 146.36927187 149.27913726 156.65683363 139.59765625 168.12109375 C137.63998235 170.42339485 135.6006634 172.64371114 133.5625 174.875 C129.16149671 179.76336271 125.05080191 184.81984264 121 190 C119.95990176 191.31010733 118.91951353 192.61998446 117.87890625 193.9296875 C100.22182309 216.26070444 84.6607597 239.82642654 71.14550781 264.88525391 C70.04614269 266.914815 68.92755433 268.9325902 67.8046875 270.94921875 C40.48226638 320.56840256 24.42032869 376.19810531 16 432 C15.87931152 432.78971191 15.75862305 433.57942383 15.63427734 434.39306641 C14.91579223 439.24821542 14.41115659 444.11095703 14 449 C13.91121582 450.02561035 13.82243164 451.0512207 13.73095703 452.10791016 C10.31814782 493.05586556 11.70076037 533.37743933 18 574 C18.14131348 574.92989746 18.28262695 575.85979492 18.42822266 576.81787109 C30.70680843 655.878898 65.32529977 732.48300743 115 795 C115.5067627 795.63824707 116.01352539 796.27649414 116.53564453 796.93408203 C122.66520176 804.62596704 128.8821461 812.17375411 135.5859375 819.375 C136.86266048 820.7632813 138.13394579 822.15774657 139.35473633 823.59545898 C144.90970987 830.12730277 150.98247459 836.1334053 157.05151367 842.18188477 C158.93328274 844.05829475 160.80964738 845.93998969 162.68554688 847.82226562 C168.62011562 853.76047265 174.56525059 859.5985951 181 865 C182.10678842 865.96072137 183.21228474 866.92293357 184.31640625 867.88671875 C256.11721863 929.99507857 345.72091945 971.15913368 553.88999939 989.34449768 C561.61929417 988.78135856 569.31070192 987.95937593 577 987 C578.29405762 986.83902832 579.58811523 986.67805664 580.92138672 986.51220703 C665.38664657 975.46732128 749.19439392 939.69580921 816.25 887.36474609 C818.05438024 885.9575913 819.87013987 884.56611926 821.6875 883.17578125 C828.24344099 878.12904607 834.48934152 872.88924957 840.55859375 867.26171875 C842.65389313 865.32063341 844.77704888 863.43015898 846.9375 861.5625 C855.50651294 854.08188991 863.75574491 846.34037783 871.8125 838.3125 C872.87005493 837.2618335 872.87005493 837.2618335 873.94897461 836.18994141 C877.94831403 832.17881287 881.7670024 828.06502993 885.46557617 823.77514648 C887.34738297 821.59811908 889.29764495 819.48877024 891.25 817.375 C896.28686708 811.78603113 900.88244388 805.90268787 905.47705078 799.95117188 C907.03522776 797.95486691 908.62145102 795.98390565 910.21484375 794.015625 C920.43339627 781.29502331 929.2917201 767.77696343 938 754 C938.46776855 753.26152832 938.93553711 752.52305664 939.41748047 751.76220703 C942.05418748 747.56807794 944.56196419 743.31234617 947 739 C947.4626123 738.18547363 947.92522461 737.37094727 948.40185547 736.53173828 C976.57257593 686.59314202 994.94259297 633.35447908 1005 577 C1005.17611816 576.03674805 1005.35223633 575.07349609 1005.53369141 574.08105469 C1006.55485356 568.40598168 1007.3301737 562.72635815 1008 557 C1008.13390137 555.92943359 1008.26780273 554.85886719 1008.40576172 553.75585938 C1013.00841428 515.75420604 1013.51447975 475.90767635 1008 438 C1007.85014648 436.90703613 1007.70029297 435.81407227 1007.54589844 434.68798828 C1006.50108092 427.1003061 1005.29567261 419.54854893 1004 412 C1003.82774902 410.97052246 1003.65549805 409.94104492 1003.47802734 408.88037109 C994.10147866 353.58211032 973.63024548 299.21149798 945 251 C944.51740723 250.18692383 944.03481445 249.37384766 943.53759766 248.53613281 C927.2213795 221.25159026 908.41103675 195.75158814 886.984375 172.2734375 C885.16489858 170.18891924 883.54198715 168.06395778 881.9375 165.8125 C880.01496749 163.17172387 878.06781602 161.08472283 875.5546875 159.00390625 C871.99612277 155.94715395 868.64997907 152.71924142 865.35546875 149.3828125 C864.85573044 148.87749496 864.35599213 148.37217743 863.84111023 147.85154724 C861.77131262 145.75456812 859.70526594 143.65398789 857.64428711 141.54833984 C851.50492963 135.28512241 845.31708577 129.39277031 838.42944336 123.9453125 C835.99904312 121.9992338 833.68128198 119.96590934 831.375 117.875 C827.0900979 114.01626357 822.59708424 110.47769966 818 107 C817.34 107.33 816.68 107.66 816 108 C816 108.66 816 109.32 816 110 C810.08123382 111.09168354 806.25846964 111.46289464 801 108 C800.34 107.34 799.68 106.68 799 106 C799.05664817 104.2559177 799.18725925 102.51383684 799.359375 100.77734375 C799.45289635 96.64761003 799.45289635 96.64761003 797.64257812 93.07470703 C795.60055053 91.3657573 793.51722812 89.95922853 791.25 88.5625 C790.44449707 88.02592773 789.63899414 87.48935547 788.80908203 86.93652344 C786.23333565 85.24316735 783.62489394 83.61595336 781 82 C780.15598633 81.47196777 779.31197266 80.94393555 778.44238281 80.39990234 C772.69403177 76.81745182 766.87190382 73.37546567 761 70 C760.27506348 69.58234375 759.55012695 69.1646875 758.80322266 68.734375 C754.83581727 66.4572525 750.8482895 64.22014365 746.83984375 62.01611328 C745.09500486 61.05246951 743.35969398 60.07163236 741.625 59.08984375 C688.66627048 29.78200139 628.62856073 14.32069749 568.8125 7.6875 C568.07926514 7.60609772 567.34603027 7.52469543 566.59057617 7.44082642 C549.34510655 5.55524192 532.24525603 4.83524578 514.90161133 4.86962891 C511.70323916 4.8749737 508.50500847 4.86965983 505.30664062 4.86328125 C487.45680213 4.85587021 469.79645577 5.51861711 452.0625 7.625 Z " fill="#FEFEFE" transform="translate(0,0)"/>
<path d="M0 0 C1.05832031 0.37382812 2.11664062 0.74765625 3.20703125 1.1328125 C25.93906095 9.9454864 44.72032374 26.76762281 55 49 C64.34203107 71.43237245 65.3627733 96.59129433 56.12304688 119.14013672 C48.56971974 136.68839196 35.67158215 149.78644706 20.89453125 161.625 C7.40231716 172.69553464 -2.35338477 184.52755443 -11.34570312 199.51342773 C-19.61755865 213.22722718 -19.61755865 213.22722718 -25 216 C-29.65769444 215.58200178 -33.06047604 214.13007688 -37.1875 212 C-56.2496453 202.69900461 -77.3153551 197.57632351 -97.83642578 192.61328125 C-100 192 -100 192 -101 191 C-101.09888475 188.12122731 -101.13716136 185.26215081 -101.140625 182.3828125 C-101.1590015 180.55858175 -101.17857602 178.73436276 -101.19921875 176.91015625 C-101.2277921 174.04749416 -101.24998945 171.18556628 -101.25048828 168.32275391 C-101.26718361 154.78284438 -102.91012259 142.90754625 -107 130 C-107.33580078 128.89527344 -107.67160156 127.79054688 -108.01757812 126.65234375 C-108.86460053 123.90644106 -109.74294465 121.17230336 -110.625 118.4375 C-119.02074779 91.46233626 -119.33432487 66.66864974 -106.51171875 41.0234375 C-95.03984225 19.83195203 -74.84069484 4.88118482 -52 -2 C-35.70100005 -6.77015174 -15.92425272 -5.65949051 0 0 Z " fill="#FED12F" transform="translate(815,142)"/>
<path d="M0 0 C16.7582491 2.6518548 30.54600076 21.28548814 39.86547852 34.08642578 C44.67313414 40.82327861 48.9774295 47.7695167 53 55 C53.47083008 55.84594727 53.94166016 56.69189453 54.42675781 57.56347656 C70.85931896 87.39570815 84.83239507 122.36606016 75.97265625 156.8984375 C73.0049726 166.36165363 69.04956667 174.14121713 63 182 C61.88625 183.546875 61.88625 183.546875 60.75 185.125 C49.21311843 197.18628528 34.3407199 203.80104115 17.78442383 204.45556641 C0.52203113 204.75092745 -13.4689952 199.30101438 -26.1875 187.375 C-44.65126414 167.94561904 -48.95898165 141.09947526 -51.0625 115.4375 C-53.43957972 87.08252159 -58.67096035 60.99511409 -78 39 C-78.65226563 38.19304688 -79.30453125 37.38609375 -79.9765625 36.5546875 C-84.34601953 31.33425007 -89.10733468 27.14768657 -94.5625 23.125 C-95.17552979 22.67261963 -95.78855957 22.22023926 -96.42016602 21.75415039 C-100.74785671 18.66524747 -105.1982197 16.28150887 -110 14 C-109.67 13.34 -109.34 12.68 -109 12 C-108.4416748 12.09087891 -107.88334961 12.18175781 -107.30810547 12.27539062 C-96.27793643 13.99644121 -85.52997636 15.18252246 -74.37109375 14.8125 C-73.54172302 14.79006226 -72.71235229 14.76762451 -71.85784912 14.74450684 C-67.72333689 14.62870089 -63.60538713 14.4543179 -59.47802734 14.18554688 C-49.61815505 13.74902219 -43.90118037 15.25284972 -36.37483215 21.8157959 C-34.89130444 23.18364214 -33.44403498 24.59052464 -32 26 C-31.2879541 26.63953613 -30.5759082 27.27907227 -29.84228516 27.93798828 C-11.43110504 44.55378193 -1.42482913 69.35541987 7 92 C7.59222374 93.57690713 8.18464347 95.15374068 8.77734375 96.73046875 C9.18082031 97.80941406 9.58429688 98.88835937 10 100 C10.9518487 68.96973243 6.77157228 41.47531803 -15.09277344 18.05737305 C-17.6850657 15.32744108 -20.33467432 12.65825492 -23 10 C-22.00818726 9.59890015 -22.00818726 9.59890015 -20.99633789 9.18969727 C-18.01732351 7.9832502 -15.03989848 6.77292912 -12.0625 5.5625 C-11.02158203 5.14162109 -9.98066406 4.72074219 -8.90820312 4.28710938 C-7.91884766 3.88427734 -6.92949219 3.48144531 -5.91015625 3.06640625 C-4.99371338 2.69459229 -4.07727051 2.32277832 -3.13305664 1.93969727 C-1.05899699 1.17967181 -1.05899699 1.17967181 0 0 Z " fill="#FEFEFE" transform="translate(705,555)"/>
<path d="M0 0 C0.70382812 0.41121094 1.40765625 0.82242187 2.1328125 1.24609375 C3.18855469 1.84744141 3.18855469 1.84744141 4.265625 2.4609375 C11.24982132 7.04182672 15.29912979 14.02065097 18.5703125 21.55859375 C20.5149391 34.30670145 19.27100804 44.62935728 11.79296875 55.17578125 C5.95313813 62.45839356 -1.6396387 66.76633555 -10.8671875 68.24609375 C-22.64685878 69.26244445 -31.45439595 66.29599538 -40.609375 58.82421875 C-47.10032599 52.97400541 -51.34271849 44.55989375 -52.0703125 35.80078125 C-52.27184604 24.27978054 -49.23010516 14.95254922 -41.203125 6.4921875 C-30.31456449 -3.42684365 -13.47465604 -6.60029762 0 0 Z " fill="#74CBF2" transform="translate(518.8671875,304.75390625)"/>
<path d="M0 0 C6.15084539 1.85517434 6.15084539 1.85517434 8.484375 5.35546875 C8.12173272 12.13223897 5.82392514 18.66202738 3.95703125 25.1484375 C3.60805283 26.37202469 3.2590744 27.59561188 2.89952087 28.85627747 C2.1628758 31.43472551 1.42443245 34.01257266 0.68286133 36.58959961 C-0.26560679 39.88644175 -1.20635099 43.18542851 -2.14475155 46.48514843 C-3.04437427 49.64487646 -3.95015593 52.8028359 -4.85546875 55.9609375 C-5.19198959 57.14326462 -5.52851044 58.32559174 -5.87522888 59.54374695 C-6.19218216 60.64201309 -6.50913544 61.74027924 -6.83569336 62.87182617 C-7.11247421 63.83666428 -7.38925507 64.80150238 -7.67442322 65.795578 C-9.66169338 71.84310978 -9.66169338 71.84310978 -12.703125 73.66796875 C-16.93140082 74.70154728 -20.37055503 74.44682014 -24.296875 72.44921875 C-25.953125 71.29296875 -25.953125 71.29296875 -28.515625 68.35546875 C-29.10158893 61.68604033 -27.69318071 55.64527973 -26.1796875 49.171875 C-25.82056778 47.58946266 -25.82056778 47.58946266 -25.45419312 45.9750824 C-24.69106298 42.62081058 -23.91609277 39.26940735 -23.140625 35.91796875 C-22.62680873 33.67010355 -22.11378018 31.42205814 -21.6015625 29.17382812 C-20.44743463 24.11298421 -19.2863289 19.05381659 -18.11529541 13.99685669 C-17.7184548 12.24887984 -17.33456971 10.49790649 -16.96429443 8.74411011 C-16.79480286 7.94159821 -16.62531128 7.1390863 -16.45068359 6.31225586 C-16.30666107 5.60951035 -16.16263855 4.90676483 -16.01425171 4.182724 C-15.515625 2.35546875 -15.515625 2.35546875 -13.953125 -0.26953125 C-9.41442052 -2.82982609 -4.83133206 -1.23784129 0 0 Z " fill="#FED02E" transform="translate(826.515625,37.64453125)"/>
<path d="M0 0 C3.77743156 1.29590718 5.12937388 3.42505135 7.48828125 6.60546875 C8.27847656 7.64058594 9.06867188 8.67570312 9.8828125 9.7421875 C11.89387014 13.30425691 12.54872288 14.91743256 11.67578125 18.91796875 C6.4995063 24.69657387 -1.18950169 27.89409965 -7.94921875 31.54296875 C-9.90677783 32.60583229 -11.86360109 33.67004094 -13.82032776 34.73443604 C-15.12588462 35.444395 -16.43190406 36.153504 -17.73838806 36.86175537 C-21.65738449 38.99104413 -25.53927128 41.17346818 -29.3984375 43.41015625 C-30.2941748 43.92368652 -31.18991211 44.4372168 -32.11279297 44.96630859 C-33.74314054 45.90401866 -35.36648309 46.85406412 -36.98095703 47.81884766 C-42.03252287 50.69284096 -45.49974395 51.6109127 -51.32421875 50.91796875 C-55.08680035 47.8608712 -56.65676496 45.35697918 -57.32421875 40.54296875 C-57.04230385 37.60734187 -56.70166589 36.28433756 -54.56079102 34.20629883 C-53.33187134 33.36168091 -53.33187134 33.36168091 -52.078125 32.5 C-50.58369873 31.46601074 -50.58369873 31.46601074 -49.05908203 30.41113281 C-47.81543283 29.57812616 -46.57033788 28.74727601 -45.32421875 27.91796875 C-44.57758972 27.41769165 -43.83096069 26.91741455 -43.06170654 26.40197754 C-37.75514116 22.85123867 -32.42620582 19.33540522 -27.0871582 15.83374023 C-24.23519398 13.96307053 -21.38596061 12.08829693 -18.53710938 10.21289062 C-16.72541606 9.02189862 -14.91357266 7.83113489 -13.1015625 6.640625 C-11.82357033 5.80012352 -11.82357033 5.80012352 -10.51976013 4.94264221 C-9.73456497 4.42797897 -8.94936981 3.91331573 -8.14038086 3.38305664 C-7.44963974 2.92975479 -6.75889862 2.47645294 -6.04722595 2.00941467 C-3.78881038 0.57881214 -2.71964437 -0.09598745 0 0 Z " fill="#FECB2A" transform="translate(934.32421875,117.08203125)"/>
<path d="M0 0 C2.37832266 1.97117448 4.25158117 4.28971822 6.1875 6.6875 C7.03332642 7.69973633 7.03332642 7.69973633 7.89624023 8.73242188 C9.61771887 10.80603764 11.31337651 12.89796924 13 15 C13.48694336 15.60666504 13.97388672 16.21333008 14.47558594 16.83837891 C16.74730069 19.68479763 18.99303004 22.55021229 21.22265625 25.4296875 C24.76895465 30.00696105 28.40139051 34.51488585 32.02954102 39.02734375 C32.95721317 40.18303913 33.88245349 41.34069283 34.8046875 42.50073242 C35.80694021 43.75784719 36.82366491 45.00340535 37.84375 46.24609375 C39 48 39 48 39 50.9375 C37.70996408 54.88823501 36.33548415 56.51612883 33 59 C30.19722015 60.19178032 28.00635292 60.57474394 25 60 C21.93405216 58.02903353 19.49886007 55.63737781 17 53 C16.42894531 52.46890625 15.85789062 51.9378125 15.26953125 51.390625 C14 50 14 50 14 48 C13.34 48 12.68 48 12 48 C10.67333984 46.64990234 10.67333984 46.64990234 9.0859375 44.7109375 C6.05125281 41.141368 2.86426351 37.77417198 -0.4609375 34.4765625 C-0.94073059 34.00007263 -1.42052368 33.52358276 -1.91485596 33.03265381 C-3.39961393 31.56144121 -4.88687813 30.09280952 -6.375 28.625 C-8.36485621 26.66173429 -10.35135935 24.69516169 -12.3359375 22.7265625 C-13.20782715 21.86627441 -14.0797168 21.00598633 -14.97802734 20.11962891 C-17.35856916 17.62411284 -17.91838159 16.62082091 -18.3671875 13.20703125 C-17.87587582 8.91589416 -16.24501176 7.5998056 -13.125 4.6875 C-12.22007812 3.82511719 -11.31515625 2.96273437 -10.3828125 2.07421875 C-6.58551733 -1.23129557 -4.86360555 -1.461994 0 0 Z " fill="#FCD12F" transform="translate(697,74)"/>
<path d="M0 0 C2.03005297 3.32190486 1.9776797 5.43302856 1.375 9.25 C-3.52689885 16.04940808 -11.98897777 18.55943084 -19.94921875 19.93359375 C-29.27729972 21.0366223 -37.14069214 20.95190781 -45.125 15.5625 C-46.92677296 12.78476669 -47.25606869 10.50471039 -47.06640625 7.20703125 C-46.28168423 3.72786546 -44.41621754 2.34341316 -41.625 0.25 C-29.86449889 -6.76836357 -11.72119647 -7.81413098 0 0 Z " fill="#FDFEFE" transform="translate(765.625,387.75)"/>
<path d="M0 0 C5.61164031 1.35453387 8.21700265 5.41362165 11.625 9.875 C11.295 10.535 10.965 11.195 10.625 11.875 C10.18929687 11.30910156 9.75359375 10.74320313 9.3046875 10.16015625 C6.6439039 6.88313056 4.51289723 4.3095029 0.6875 2.4375 C-4.2281922 3.13974174 -6.98382894 6.43321444 -10.375 9.875 C-11.21611328 10.65037109 -11.21611328 10.65037109 -12.07421875 11.44140625 C-13.61093845 12.9013264 -13.61093845 12.9013264 -14 15.5625 C-13.04976562 20.59874222 -9.84387393 23.26278417 -6.375 26.875 C-5.38457788 28.03212683 -4.40380717 29.19766023 -3.4375 30.375 C-2.4165625 31.6125 -2.4165625 31.6125 -1.375 32.875 C-7.16562949 30.39910001 -11.6047377 25.82214792 -15.375 20.875 C-16.54777785 16.49216163 -15.78427878 13.10283633 -14.375 8.875 C-12.72943434 7.84064444 -11.0579392 6.84736487 -9.375 5.875 C-7.951875 4.5446875 -7.951875 4.5446875 -6.5 3.1875 C-3.375 0.875 -3.375 0.875 0 0 Z " fill="#63C4F4" transform="translate(693.375,71.125)"/>
<path d="M0 0 C0.66 0.33 1.32 0.66 2 1 C-0.49565251 3.52516805 -2.99732451 6.04429373 -5.5 8.5625 C-6.19609375 9.26697266 -6.8921875 9.97144531 -7.609375 10.69726562 C-11.67376797 14.78047523 -15.83604501 18.66674803 -20.20117188 22.42602539 C-22.5699702 24.49872393 -24.79217323 26.69517593 -27 28.9375 C-28.1446875 30.09572266 -28.1446875 30.09572266 -29.3125 31.27734375 C-30.1478125 32.13005859 -30.1478125 32.13005859 -31 33 C-31 30 -31 30 -29.10742188 27.75097656 C-28.23666016 26.88956055 -27.36589844 26.02814453 -26.46875 25.140625 C-25.9994104 24.67315857 -25.5300708 24.20569214 -25.04650879 23.72406006 C-24.04783542 22.73211719 -23.04556695 21.74378288 -22.04003906 20.75878906 C-20.52690059 19.27635473 -19.02426617 17.78394729 -17.5234375 16.2890625 C-12.18278788 10.99228313 -6.71995356 5.88788995 -1 1 C-0.67 0.67 -0.34 0.34 0 0 Z " fill="#65C7F1" transform="translate(177,131)"/>
<path d="M0 0 C1.29873047 0.00644531 2.59746094 0.01289063 3.93554688 0.01953125 C5.30729432 0.0362419 6.67903911 0.05317179 8.05078125 0.0703125 C9.43423843 0.08034576 10.81770252 0.08947101 12.20117188 0.09765625 C15.58871577 0.12126283 18.97591197 0.15419213 22.36328125 0.1953125 C22.36328125 0.8553125 22.36328125 1.5153125 22.36328125 2.1953125 C18.16891288 3.01164763 14.35504268 3.26425237 10.08984375 3.07421875 C8.93613281 3.02587891 7.78242187 2.97753906 6.59375 2.92773438 C4.80904297 2.84362305 4.80904297 2.84362305 2.98828125 2.7578125 C1.16876953 2.67950195 1.16876953 2.67950195 -0.6875 2.59960938 C-3.67086388 2.47040858 -6.65385248 2.33546209 -9.63671875 2.1953125 C-6.00365817 -0.22672788 -4.31852852 -0.03771641 0 0 Z " fill="#70C3E4" transform="translate(782.63671875,135.8046875)"/>
<path d="M0 0 C0.33 0 0.66 0 1 0 C1 7.92 1 15.84 1 24 C-0.80125336 21.29811996 -2.00243753 19.06942297 -3 16 C-2.67 15.01 -2.34 14.02 -2 13 C-1.34 13.33 -0.68 13.66 0 14 C0 9.38 0 4.76 0 0 Z " fill="#5AC3F1" transform="translate(715,634)"/>
<path d="M0 0 C4 0 4 0 6.1875 1.75 C8.02214016 4.02748433 8.37552227 5.23445575 9 8 C10.47890069 9.73026102 10.47890069 9.73026102 12 11 C11.67 11.66 11.34 12.32 11 13 C9.16052663 11.21427748 7.32842259 9.42197551 5.5 7.625 C4.71302734 6.86316406 4.71302734 6.86316406 3.91015625 6.0859375 C2.56846819 4.76167396 1.28004185 3.38394135 0 2 C0 1.34 0 0.68 0 0 Z " fill="#FDD421" transform="translate(696,106)"/>
<path d="M0 0 C3.85481955 2.81441843 6.34005334 5.58866862 8.875 9.625 C9.49117187 10.58664063 10.10734375 11.54828125 10.7421875 12.5390625 C11.15726563 13.35117188 11.57234375 14.16328125 12 15 C11.67 15.66 11.34 16.32 11 17 C7 12.25 7 12.25 7 10 C5.68 9.67 4.36 9.34 3 9 C2.87625 8.2575 2.7525 7.515 2.625 6.75 C2.04513299 4.19858515 1.26291261 2.2732427 0 0 Z " fill="#FAD421" transform="translate(854,169)"/>
<path d="M0 0 C1.98244892 0.78341119 3.96088859 1.57697486 5.9375 2.375 C7.03964844 2.81585938 8.14179687 3.25671875 9.27734375 3.7109375 C12 5 12 5 13 7 C10.69 6.67 8.38 6.34 6 6 C6 6.99 6 7.98 6 9 C4.99406757 7.8803014 3.9954151 6.7540588 3 5.625 C2.443125 4.99851563 1.88625 4.37203125 1.3125 3.7265625 C0 2 0 2 0 0 Z " fill="#64C6F0" transform="translate(630,235)"/>
<path d="M0 0 C5.15464734 0.48324819 8.81550319 3.18610761 13 6 C12.34 6.66 11.68 7.32 11 8 C11 7.34 11 6.68 11 6 C9.9275 5.938125 8.855 5.87625 7.75 5.8125 C4 5 4 5 1.5625 2.4375 C1.046875 1.633125 0.53125 0.82875 0 0 Z " fill="#F9D524" transform="translate(824,147)"/>
<path d="M0 0 C0 4.46153846 0 4.46153846 -1 7 C-3.5625 9.25 -3.5625 9.25 -6 11 C-6.66 10.67 -7.32 10.34 -8 10 C-5.36 6.7 -2.72 3.4 0 0 Z " fill="#66C4F1" transform="translate(801,345)"/>
<path d="M0 0 C0.33 0.66 0.66 1.32 1 2 C-0.43522725 5.94687492 -1.67830089 9.31100548 -5 12 C-5.66 11.67 -6.32 11.34 -7 11 C-4.69 7.37 -2.38 3.74 0 0 Z " fill="#64C6F3" transform="translate(812,327)"/>
<path d="M0 0 C1.32 0.66 2.64 1.32 4 2 C2.8125 3.5625 2.8125 3.5625 1 5 C-1.6875 4.6875 -1.6875 4.6875 -4 4 C-2.68 2.68 -1.36 1.36 0 0 Z " fill="#F7D326" transform="translate(789,353)"/>
<path d="M0 0 C0 0.99 0 1.98 0 3 C-0.66 3.66 -1.32 4.32 -2 5 C-2.16681109 8.08347826 -2.16681109 8.08347826 -2 11 C-2.66 11 -3.32 11 -4 11 C-4.35233161 5.62694301 -4.35233161 5.62694301 -4 3 C-2 1 -2 1 0 0 Z " fill="#FDB716" transform="translate(882,150)"/>
<path d="M0 0 C1.98 0 3.96 0 6 0 C2.25474201 3.74525799 -1.98270909 3.68909949 -7 4 C-4 2 -4 2 0 2 C0 1.34 0 0.68 0 0 Z " fill="#65C4F4" transform="translate(770,136)"/>
</svg>
